<svg width="100%"  viewBox="0 0 640 512" fill="currentColor" xmlns="http://www.w3.org/2000/svg">
<g clip-path="url(#clip0_158_496)">
<path d="M150.7 92.7698C195 58.2698 251.8 31.9998 320 31.9998C400.8 31.9998 465.5 68.8398 512.6 112.6C559.4 156 590.7 207.1 605.5 243.7C608.8 251.6 608.8 260.4 605.5 268.3C592.1 300.6 565.2 346.1 525.6 386.7L630.8 469.1C641.2 477.3 643.1 492.4 634.9 502.8C626.7 513.2 611.6 515.1 601.2 506.9L9.19582 42.8898C-1.23618 34.7098 -3.06518 19.6298 5.11182 9.19582C13.2898 -1.23618 28.3698 -3.06518 38.8098 5.11182L150.7 92.7698ZM189.8 123.5L235.8 159.5C258.3 139.9 287.8 128 320 128C390.7 128 448 185.3 448 256C448 277.2 442.9 297.1 433.8 314.7L487.6 356.9C521.1 322.8 545.9 283.1 558.6 256C544.1 225.1 518.4 183.5 479.9 147.7C438.8 109.6 385.2 79.0998 320 79.0998C269.5 79.0998 225.1 97.7298 189.8 123.5ZM394.9 284.2C398.2 275.4 400 265.9 400 255.1C400 211.8 364.2 175.1 320 175.1C319.3 175.1 318.7 176 317.1 176C319.3 181.1 320 186.5 320 191.1C320 202.2 317.6 211.8 313.4 220.3L394.9 284.2ZM404.3 414.5L446.2 447.5C409.9 467.1 367.8 480 320 480C239.2 480 174.5 443.2 127.4 399.4C80.6198 355.1 49.3398 304 34.4598 268.3C31.1798 260.4 31.1798 251.6 34.4598 243.7C43.9998 220.8 60.2898 191.2 83.0898 161.5L120.8 191.2C102.1 214.5 89.7598 237.6 81.4498 255.1C95.0198 286 121.6 328.5 160.1 364.3C201.2 402.4 254.8 432 320 432C350.7 432 378.8 425.4 404.3 414.5ZM192 255.1C192 253.1 192.1 250.3 192.3 247.5L248.4 291.7C258.9 312.8 278.5 328.6 302 333.1L358.2 378.2C346.1 381.1 333.3 384 319.1 384C249.3 384 191.1 326.7 191.1 255.1H192Z" fill="#10B981"/>
</g>
<defs>
<clipPath id="clip0_158_496">
<rect width="640" height="512" fill="white"/>
</clipPath>
</defs>
</svg>
